<?xml version="1.0" encoding="UTF-8"?> <svg xmlns="http://www.w3.org/2000/svg" width="1088" height="583" viewBox="0 0 1088 583" fill="none"> <path fill-rule="evenodd" clip-rule="evenodd" d="M962.733 114.047L939.389 121.242C941.873 131.324 948.382 164.478 950.491 174.655L969.692 159.862C968.334 147.67 964.768 123.822 962.733 114.047ZM439.239 278.433L468.453 270.18C449.886 213.29 436.126 121.423 437.223 68.0217L413.972 66.9223C409.451 149.381 426.737 246.892 439.239 278.433ZM422.247 337.08C404.38 276.455 371.746 167.88 377.931 14.2474C409.447 13.29 442.371 16.4949 470.43 20.7394C462.813 105.265 470.508 200.675 513.596 306.504C481.537 313.112 456.856 322.781 422.247 337.08ZM317.861 379.196C277.933 230.715 283.585 161.119 282.778 76.4151C270.155 77.9798 256.611 80.7986 245.109 82.8614C245.361 58.5746 249.47 40.4465 251.922 19.9719C288.868 16.2758 320.474 15.3652 357.456 14.2972C357.724 29.8894 355.268 52.6565 355.537 68.2499C339.565 69.4905 337.233 69.6995 321.268 71.2042C313.756 188.669 334.803 283.377 360.881 364.139C342.741 371.016 339.966 372.013 317.861 379.196ZM534.8 302.9C497.291 199.824 482.791 105.569 493.334 24.5534C509.826 26.7362 522.163 31.4061 531.633 34.2058C538.352 67.8344 553.657 109.44 562.344 126.107C565.877 101.964 568.86 81.3762 567.712 47.8056C582.33 54.0912 598.384 63.1259 606.846 67.8097C613.484 91.941 624.018 209.051 640.153 296.772C626.578 296.267 617.456 296.946 607.635 297.06C602.52 260.88 590.659 174.822 587.431 139.402C582.568 161.78 577.183 197.551 573.902 224.633C550.763 201.002 532.898 140.374 523.455 116.027C525.527 150.054 542.243 218.321 568.321 299.083L534.8 302.9ZM692.417 182.832L671.435 185.615C667.161 157.274 665.181 148.528 663.563 129.179C672.106 131.798 677.191 133.828 685.798 135.461C688.312 161.036 688.67 162.637 692.417 182.832ZM733.212 296.001C724.804 232.792 713.082 199.011 708.048 111.463C680.356 105.827 661.612 97.4044 630.073 80.8585C640.769 159.959 648.561 206.595 655.895 296.869C665.048 296.606 676.889 297.15 684.822 297.074C684.569 285.187 677.877 223.693 677.686 212.226C680.116 211.902 687.929 210.082 696.189 209.423C698.605 226.518 703.403 257.372 705.137 297.336C715.684 296.986 723.913 296.663 733.212 296.001ZM776.135 291.612C763.314 213.178 762.946 185.796 756.11 151.567C743.204 150.754 741.204 150.446 729.282 149.365C727.721 134.765 726.98 126.187 725.157 114.761C763.201 118.872 780.307 119.434 811.372 117.981C813.133 125.599 815.902 139.867 816.594 149.254C802.331 150.547 796.375 151.422 784.996 151.635C789.792 182.183 791.143 205.134 805.84 285.376C796.72 288.359 785.499 289.484 776.135 291.612ZM871.352 260.233C861.122 183.971 861.487 173.686 856.828 142.804C847.449 144.448 837.907 146.65 829.291 147.789C828.186 136.518 825.835 127.207 823.856 117.274C855.849 114.998 892.079 109.522 903.697 106.325C904.818 115.284 906.7 123.49 906.958 131.223C894.698 134.45 890.023 135.825 881.015 137.673C883.784 166.433 889.709 192.53 897.265 245.86C888.195 251.545 880.752 256.233 871.352 260.233ZM976.497 86.0143C984.232 137.242 986.531 148.487 990.609 169.328C975.855 184.307 959.746 202.467 936.334 218.304C932.654 196.91 923.819 146.143 913.783 104.229C938.582 98.6724 954.074 94.2376 976.497 86.0143Z" fill="#DA291C"></path> <path fill-rule="evenodd" clip-rule="evenodd" d="M495.838 330.037C688.209 285.06 807.359 386.277 1005.99 173.017C1024.38 150.825 1036.99 154.114 996.409 196.489C966.763 227.447 941.192 252.004 914.241 269.151C895.217 281.255 869.272 295.036 856.105 299.915C820.996 312.928 793.967 318.166 765.224 323.473C678.298 339.519 585.471 327.944 515.104 340.354C463.834 349.397 318.054 406.969 292.819 447.581C290.519 451.281 284.346 454.823 279.582 457.821C271.128 463.139 260.623 469.967 247.159 471.365C233.694 472.764 219.71 468.48 210.344 465.012C205.704 463.294 202.138 462.69 199.218 460.036C189.994 451.656 165.063 365.869 163.153 358.526C138.574 264.031 137.649 126.503 159.289 27.8411C163.305 -7.41399 253.168 -2.47955 237.456 6.59522C206.929 143.786 227.096 275.662 278.44 405.148C285.22 422.249 470.767 335.898 495.838 330.037Z" fill="#FFC56E"></path> <path fill-rule="evenodd" clip-rule="evenodd" d="M25.0217 337.268C21.3942 339.383 23.6091 342.828 31.8827 343.521C54.6299 345.428 93.6836 320.262 110.394 308.556C109.769 323.658 106.721 333.977 107.39 351.038C108.583 381.457 127.844 442.648 146.364 448.089C142.256 425.055 130.691 412.03 130.66 368.717C130.642 342.164 137.474 310.424 150.044 293.601C155.159 295.193 159.865 298.627 165.038 300.907C176.595 305.999 210.582 313.393 219.224 305.795C211.759 299.058 175.032 295.39 165.249 256.338C158.015 227.454 170.494 195.09 160.437 161.984C147.919 120.779 111.394 105.889 76.4504 91.4827C54.7359 82.5312 54.6969 75.8699 45.8522 71.2939C49.4594 110.053 131.206 141.867 134.328 191.112C125.292 185.781 118.169 179.035 105.856 173.905C83.7545 164.698 55.1951 162.575 32.7772 155.71C20.9499 152.088 8.93542 144.775 0 142.579C7.58465 166.634 109.287 205.57 113.106 223.959C77.5434 226.399 60.2981 214.193 33.6387 213.83C30.4832 224.634 32.2621 245.725 33.1874 257.977C51.0024 265.917 90.0674 259.103 111.626 261.556C96.7219 285.085 72.4584 307.284 49.558 322.314C45.5008 324.977 26.6137 335.513 25.0217 337.268Z" fill="#429700"></path> <path d="M310.177 552.633L287.132 513.593L277.295 519.4L274.612 514.855L300.576 499.529L303.259 504.074L293.359 509.918L316.403 548.958L310.177 552.633ZM342.9 534.566C340.045 536.178 337.2 536.898 334.364 536.727C331.528 536.557 328.618 535.127 325.634 532.439C322.65 529.751 319.523 525.51 316.254 519.717C312.985 513.924 310.976 509.066 310.229 505.143C309.481 501.22 309.762 497.99 311.07 495.453C312.378 492.916 314.459 490.842 317.313 489.231C320.209 487.597 323.071 486.881 325.898 487.084C328.725 487.288 331.624 488.723 334.596 491.391C337.568 494.058 340.689 498.288 343.959 504.081C347.228 509.874 349.242 514.742 350.002 518.686C350.761 522.63 350.491 525.854 349.193 528.358C347.894 530.862 345.796 532.932 342.9 534.566ZM340.661 530.6C341.626 530.055 342.401 529.244 342.983 528.168C343.566 527.092 343.834 525.654 343.786 523.855C343.739 522.055 343.234 519.835 342.27 517.197C341.307 514.558 339.771 511.37 337.662 507.634C335.554 503.898 333.619 500.936 331.858 498.747C330.097 496.559 328.458 494.979 326.942 494.009C325.425 493.038 324.056 492.524 322.834 492.467C321.611 492.41 320.517 492.653 319.552 493.198C318.587 493.743 317.813 494.554 317.23 495.63C316.647 496.706 316.39 498.138 316.458 499.926C316.526 501.713 317.031 503.933 317.974 506.583C318.917 509.234 320.442 512.427 322.551 516.163C324.659 519.899 326.604 522.855 328.387 525.032C330.168 527.209 331.807 528.789 333.303 529.771C334.798 530.754 336.157 531.274 337.379 531.331C338.602 531.389 339.695 531.145 340.661 530.6ZM363.182 523.157C361.997 523.804 360.977 524.222 360.121 524.415C359.265 524.607 358.837 524.703 358.837 524.703L357.175 521.656C358.868 520.733 359.876 519.209 360.199 517.084C360.522 514.958 359.719 511.924 357.788 507.981L342.413 476.012L364.439 464L388.671 508.434L382.323 511.895L360.619 472.095L351.097 477.288L364.136 504.519C365.813 507.997 366.819 510.975 367.156 513.455C367.492 515.934 367.295 517.963 366.564 519.542C365.833 521.121 364.705 522.327 363.182 523.157ZM408.512 498.786C406.42 499.882 404.491 500.771 402.725 501.452C400.96 502.132 399.142 502.662 397.274 503.043L374.117 458.855L380.521 455.498L390.019 473.622C390.74 473.026 391.687 472.34 392.858 471.563C394.029 470.786 394.998 470.196 395.767 469.793C399.994 467.578 403.708 467.033 406.91 468.158C410.111 469.283 413.043 472.385 415.706 477.466C418.256 482.333 418.986 486.427 417.896 489.746C416.806 493.065 413.678 496.079 408.512 498.786ZM402.067 496.613L406.23 494.431C408.962 492.999 410.604 491.227 411.157 489.115C411.71 487.001 411.091 484.238 409.301 480.822C407.444 477.279 405.501 475.154 403.472 474.449C401.442 473.744 399.062 474.107 396.329 475.539L392.166 477.721L402.067 496.613ZM453.52 475.994C451.405 477.046 449.39 477.242 447.472 476.582C445.555 475.921 443.693 474.425 441.886 472.094L435.95 464.55C434.401 462.521 432.926 461.37 431.526 461.098C430.125 460.827 428.756 461.023 427.418 461.689L425.477 462.656L436.046 483.886L429.573 487.108L407.017 441.801L413.49 438.578L423.092 457.866L425.034 456.9C426.07 456.384 426.831 455.507 427.318 454.268C427.805 453.03 427.782 451.171 427.247 448.691L425.772 441.348C425.174 438.416 425.178 435.99 425.785 434.073C426.391 432.155 427.688 430.703 429.672 429.715C430.924 429.092 431.97 428.705 432.811 428.556C433.652 428.406 434.072 428.332 434.072 428.332L435.619 431.439C434.066 432.212 433.099 433.137 432.72 434.215C432.341 435.291 432.29 436.541 432.568 437.965L434.043 445.307C434.663 448.283 434.81 450.553 434.484 452.115C434.158 453.677 433.39 455.028 432.181 456.168L432.31 456.428C434.078 456.086 435.797 456.186 437.467 456.727C439.136 457.269 440.896 458.749 442.746 461.166L448.682 468.71C449.435 469.682 450.409 470.368 451.605 470.769C452.801 471.169 454.175 470.983 455.728 470.21L457.275 473.317C457.275 473.317 456.962 473.607 456.336 474.188C455.71 474.769 454.771 475.371 453.52 475.994ZM474.911 466.162C471.92 467.501 469.02 467.954 466.212 467.521C463.404 467.088 460.639 465.395 457.918 462.441C455.196 459.488 452.476 454.975 449.759 448.904C447.041 442.832 445.492 437.809 445.112 433.834C444.732 429.858 445.31 426.668 446.848 424.264C448.386 421.859 450.65 419.987 453.642 418.648C456.678 417.289 459.593 416.842 462.389 417.307C465.185 417.772 467.938 419.47 470.65 422.402C473.362 425.333 476.077 429.834 478.795 435.906C481.512 441.977 483.066 447.012 483.456 451.009C483.846 455.006 483.279 458.192 481.753 460.565C480.227 462.937 477.947 464.803 474.911 466.162ZM473.05 462.004C474.062 461.552 474.908 460.817 475.588 459.799C476.268 458.781 476.668 457.375 476.788 455.578C476.908 453.782 476.611 451.525 475.897 448.808C475.182 446.092 473.948 442.775 472.196 438.86C470.443 434.945 468.791 431.816 467.241 429.473C465.691 427.13 464.205 425.405 462.786 424.298C461.366 423.191 460.05 422.553 458.839 422.382C457.627 422.211 456.515 422.352 455.503 422.805C454.491 423.258 453.645 423.994 452.965 425.011C452.285 426.028 451.896 427.43 451.798 429.217C451.7 431.003 451.997 433.26 452.69 435.987C453.382 438.713 454.605 442.034 456.358 445.95C458.11 449.865 459.773 452.989 461.345 455.322C462.917 457.655 464.403 459.38 465.8 460.497C467.198 461.614 468.503 462.258 469.715 462.428C470.927 462.599 472.038 462.457 473.05 462.004ZM513.978 449.055L503.361 399.569L510.43 398.053L515.102 419.826L529.24 416.792L524.569 395.019L531.638 393.502L542.255 442.988L535.186 444.504L530.362 422.024L516.224 425.057L521.047 447.538L513.978 449.055ZM548.694 442.727L557.52 391.328L567.327 390.605L583.594 440.155L576.239 440.697L572.048 428.101L558.347 429.111L556.049 442.185L548.694 442.727ZM559.036 423.696L570.573 422.845L563.205 399.609L562.917 399.63L559.036 423.696ZM603.212 440.365C599.743 440.481 596.779 439.821 594.32 438.384C591.86 436.948 589.929 434.36 588.525 430.621C587.122 426.882 586.307 421.641 586.081 414.896C585.855 408.152 586.305 402.868 587.431 399.044C588.557 395.221 590.25 392.511 592.512 390.916C594.774 389.321 597.518 388.47 600.746 388.362C603.058 388.284 605.231 388.356 607.264 388.577C609.297 388.798 610.85 389.084 611.923 389.434L612.039 392.902L602.862 393.21C600.886 393.276 599.148 393.937 597.647 395.193C596.146 396.449 595.001 398.61 594.211 401.674C593.421 404.739 593.12 409.066 593.308 414.654C593.493 420.194 594.095 424.479 595.113 427.507C596.131 430.535 597.478 432.624 599.157 433.774C600.835 434.923 602.782 435.46 604.998 435.386L614.175 435.079L614.291 438.547C613.243 438.92 611.712 439.297 609.699 439.678C607.687 440.059 605.524 440.288 603.212 440.365ZM627.548 439.149L626.815 393.822L615.393 394.007L615.308 388.729L645.454 388.242L645.539 393.519L634.045 393.705L634.778 439.032L627.548 439.149ZM664.94 439.256C661.663 439.33 658.815 438.621 656.395 437.133C653.975 435.643 652.085 433.009 650.723 429.231C649.361 425.452 648.607 420.238 648.459 413.588C648.311 406.937 648.834 401.707 650.027 397.896C651.22 394.085 652.991 391.369 655.342 389.75C657.693 388.131 660.506 387.285 663.783 387.212C667.108 387.139 669.969 387.858 672.365 389.372C674.761 390.886 676.64 393.52 678.001 397.274C679.362 401.029 680.116 406.231 680.264 412.881C680.412 419.531 679.889 424.774 678.697 428.61C677.504 432.445 675.745 435.16 673.418 436.754C671.091 438.348 668.265 439.183 664.94 439.256ZM664.839 434.703C665.947 434.678 667.012 434.329 668.034 433.655C669.055 432.982 669.97 431.84 670.778 430.232C671.586 428.623 672.188 426.428 672.584 423.647C672.98 420.866 673.131 417.33 673.036 413.042C672.94 408.753 672.633 405.228 672.113 402.467C671.594 399.707 670.895 397.541 670.016 395.969C669.138 394.398 668.173 393.298 667.123 392.671C666.072 392.043 664.993 391.742 663.885 391.766C662.776 391.791 661.711 392.14 660.689 392.814C659.668 393.487 658.765 394.628 657.981 396.237C657.197 397.845 656.595 400.04 656.175 402.821C655.755 405.603 655.592 409.138 655.687 413.427C655.783 417.716 656.102 421.241 656.646 424.001C657.189 426.761 657.888 428.927 658.743 430.499C659.597 432.071 660.55 433.171 661.6 433.798C662.651 434.426 663.73 434.727 664.839 434.703ZM689.677 438.61C688.522 438.665 687.469 438.595 686.519 438.399C685.568 438.203 685.093 438.105 685.093 438.105L684.927 434.638C686.613 434.558 687.87 434.112 688.7 433.3C689.53 432.488 690.079 431.352 690.347 429.892L691.642 423.677C692.108 421.29 692.778 419.425 693.655 418.08C694.532 416.735 695.539 415.842 696.676 415.402L696.662 415.114C695.207 414.942 693.683 414.363 692.091 413.377C690.5 412.391 689.14 410.949 688.012 409.048C686.884 407.148 686.251 404.753 686.113 401.864C685.86 396.568 686.927 392.657 689.316 390.13C691.705 387.603 695.812 386.2 701.638 385.922C703.997 385.809 706.132 385.816 708.045 385.942C709.957 386.068 711.816 386.353 713.623 386.797L716.003 436.629L708.781 436.974L707.805 416.535L705.277 416.656C704.073 416.714 702.891 417.216 701.73 418.165C700.569 419.113 699.734 420.83 699.225 423.315L697.93 429.53C697.345 432.453 696.366 434.671 694.99 436.185C693.615 437.698 691.844 438.506 689.677 438.61ZM702.856 411.416L707.549 411.191L706.567 390.609L701.873 390.833C698.839 390.978 696.614 391.88 695.197 393.541C693.781 395.2 693.16 397.86 693.335 401.519C693.514 405.275 694.387 407.899 695.955 409.392C697.522 410.886 699.822 411.56 702.856 411.416ZM772.451 441.576C771.655 440.215 770.946 438.662 770.322 436.917C769.698 435.172 769.16 433.234 768.708 431.104L726.143 436.25L720.069 386.005L727.247 385.137L732.688 430.142L744.316 428.737L738.875 383.731L746.053 382.863L751.494 427.869L763.05 426.472L757.609 381.466L764.787 380.598L770.229 425.604L774.894 425.04L776.829 441.047L772.451 441.576ZM778.521 429.206L781.088 377.118L790.736 375.218L812.856 422.446L805.62 423.871L799.942 411.872L786.463 414.526L785.757 427.782L778.521 429.206ZM786.494 409.067L797.844 406.832L787.73 384.653L787.446 384.709L786.494 409.067ZM819.457 421.634C818.34 421.934 817.296 422.089 816.326 422.1C815.356 422.112 814.871 422.117 814.871 422.117L813.971 418.765C815.6 418.327 816.734 417.624 817.372 416.654C818.009 415.684 818.304 414.457 818.254 412.974L818.197 406.625C818.143 404.194 818.402 402.228 818.972 400.728C819.542 399.227 820.336 398.141 821.353 397.468L821.278 397.189C819.819 397.331 818.207 397.09 816.442 396.466C814.677 395.842 813.042 394.722 811.535 393.105C810.027 391.488 808.899 389.283 808.149 386.49C806.774 381.37 806.984 377.321 808.78 374.343C810.575 371.365 814.29 369.12 819.922 367.608C822.203 366.995 824.292 366.546 826.187 366.262C828.081 365.978 829.959 365.861 831.819 365.91L844.757 414.092L837.775 415.966L832.468 396.205L830.024 396.862C828.86 397.174 827.812 397.917 826.879 399.091C825.947 400.265 825.497 402.12 825.529 404.657L825.587 411.004C825.638 413.985 825.154 416.361 824.133 418.133C823.111 419.905 821.552 421.071 819.457 421.634ZM826.542 392.257L831.08 391.038L825.737 371.137L821.198 372.356C818.265 373.143 816.283 374.499 815.253 376.423C814.222 378.347 814.182 381.077 815.132 384.615C816.107 388.246 817.519 390.625 819.368 391.75C821.218 392.875 823.609 393.044 826.542 392.257ZM871.561 405.175L849.464 359.642L875.483 347.015L897.58 392.548L891.075 395.705L871.283 354.921L858.273 361.234L878.066 402.018L871.561 405.175ZM906.449 387.633L880.379 344.253L886.452 340.603L905.074 371.589L905.384 371.403L898.846 333.154L905.787 328.983L931.858 372.363L925.784 376.013L907.051 344.841L906.741 345.028L913.08 383.648L906.449 387.633ZM970.365 361.737C969.128 360.789 967.873 359.642 966.598 358.298C965.322 356.952 964.048 355.397 962.774 353.631L940.396 366.923L914.549 323.41L920.765 319.717L943.917 358.693L955.727 351.677L932.576 312.702L938.792 309.009L961.944 347.985L965.984 345.585L974.218 359.447L970.365 361.737ZM1004.53 341.28C1003.29 340.338 1002.03 339.198 1000.75 337.861C999.464 336.522 998.181 334.974 996.898 333.214L974.59 346.624L948.515 303.247L954.712 299.522L978.067 338.375L989.841 331.298L966.485 292.445L972.682 288.719L996.038 327.573L1000.07 325.152L1008.37 338.97L1004.53 341.28ZM1005.45 328.077L989.111 278.552L997.43 273.309L1035.06 309.418L1028.82 313.35L1019.21 304.198L1007.58 311.522L1011.69 324.145L1005.45 328.077ZM1005.65 306.418L1015.43 300.25L998.019 283.193L997.775 283.348L1005.65 306.418Z" fill="black"></path> <path d="M1047.48 258.622H1032.51C1030.71 258.622 1029.26 260.074 1029.26 261.866V276.84C1029.26 278.632 1030.71 280.085 1032.51 280.085H1047.48C1049.27 280.085 1050.73 278.632 1050.73 276.84V261.866C1050.73 260.074 1049.27 258.622 1047.48 258.622Z" fill="#DA291C"></path> <path d="M274.14 543.228L259.677 539.353C257.946 538.889 256.166 539.916 255.703 541.647L251.827 556.111C251.363 557.842 252.391 559.621 254.122 560.085L268.585 563.96C270.316 564.424 272.095 563.397 272.559 561.666L276.435 547.203C276.898 545.472 275.871 543.692 274.14 543.228Z" fill="#DA291C"></path> </svg> 